<svg id="Group_318" data-name="Group 318" xmlns="http://www.w3.org/2000/svg" width="43.937" height="43.863" viewBox="0 0 43.937 43.863">
  <path id="Path_41" data-name="Path 41" d="M3668.569,3881.979a1.526,1.526,0,0,0,2.051,0,1.634,1.634,0,0,1,2.4,0,1.7,1.7,0,0,1,0,2.462,4.641,4.641,0,0,1-3.46,1.408,4.979,4.979,0,0,1-3.46-1.408,1.417,1.417,0,0,0-2.052,0,4.816,4.816,0,0,1-2.053,1.173v-3.988A4.94,4.94,0,0,1,3668.569,3881.979Z" transform="translate(-3629.616 -3854.358)" fill="#fff" fill-rule="evenodd"/>
  <path id="Path_42" data-name="Path 42" d="M3112.7,3882.679a1.529,1.529,0,0,0,2.052,0,5.054,5.054,0,0,1,5.454-1v4.164a3.561,3.561,0,0,1-.938-.7,1.528,1.528,0,0,0-2.052,0,5.031,5.031,0,0,1-6.979,0,1.811,1.811,0,0,1,0-2.463A1.7,1.7,0,0,1,3112.7,3882.679Z" transform="translate(-3109.75 -3855.058)" fill="#fff" fill-rule="evenodd"/>
  <path id="Path_43" data-name="Path 43" d="M3334.323,3452.648a6.722,6.722,0,0,0-8.971,0,1.239,1.239,0,0,0-.352-.235V3436.7a2.729,2.729,0,0,1,2.7-2.7h12.2a2.729,2.729,0,0,1,2.7,2.7v3.519h-5.4a1.114,1.114,0,0,0,0,2.228h5.4v5.1h-5.4a1.114,1.114,0,0,0-1.114,1.114,1.1,1.1,0,0,0,1.114,1.056h5.4v2.346A6.888,6.888,0,0,0,3334.323,3452.648Z" transform="translate(-3312.377 -3434)" fill="#fff" fill-rule="evenodd"/>
  <path id="Path_44" data-name="Path 44" d="M3338.838,3850a6.388,6.388,0,0,0,3.754,1.642v2.111h-5.4a1.113,1.113,0,0,0-1.114,1.115,1.1,1.1,0,0,0,1.114,1.055h5.4v5.16h-5.4a1.085,1.085,0,1,0,0,2.17h5.4v3.519a2.729,2.729,0,0,1-2.7,2.7h-12.2a2.729,2.729,0,0,1-2.7-2.7V3851.7a6.89,6.89,0,0,0,4.867-1.7A6.723,6.723,0,0,0,3338.838,3850Z" transform="translate(-3312.377 -3825.605)" fill="#fff" fill-rule="evenodd"/>
  <path id="Path_45" data-name="Path 45" d="M3135.215,3759.163a4.92,4.92,0,0,1-6.979,0,1.529,1.529,0,0,0-2.052,0,4.849,4.849,0,0,1-6.919,0,1.529,1.529,0,0,0-2.052,0,4.921,4.921,0,0,1-6.979,0,1.742,1.742,0,0,1,2.464-2.463,1.417,1.417,0,0,0,2.052,0,5.146,5.146,0,0,1,6.979,0,1.349,1.349,0,0,0,1.994,0,4.921,4.921,0,0,1,6.979,0,1.417,1.417,0,0,0,2.052,0,4.85,4.85,0,0,1,6.92,0,1.416,1.416,0,0,0,2.052,0,4.92,4.92,0,0,1,6.978,0,1.526,1.526,0,0,0,2.053,0,1.736,1.736,0,0,1,2.4,0,1.7,1.7,0,0,1,0,2.463,4.69,4.69,0,0,1-3.46,1.466,4.787,4.787,0,0,1-3.46-1.466,1.529,1.529,0,0,0-2.052,0,4.885,4.885,0,0,1-6.978,0A1.454,1.454,0,0,0,3135.215,3759.163Z" transform="translate(-3109.75 -3736.411)" fill="#fff" fill-rule="evenodd"/>
</svg>
