<svg id="_x33_0" enable-background="new 0 0 64 64" height="512" viewBox="0 0 64 64" width="512" xmlns="http://www.w3.org/2000/svg"><path d="m32 62h-30c0-17 15-20 18-26l.3-.1 1.7 5.1-8 5 2.11.62-.11.38-3 9 6.03 1.9 6.03 1.91z" fill="#69d6f4"/><path d="m47.99 22.93c-.33.05-.66.07-.99.07-1.56 0-3.06-.63-4.17-1.66-1.11-1.02-1.83-2.44-1.83-4 0-1.57.32-3.12.96-4.53.63-1.4 1.57-2.65 2.8-3.63.93-.74 1.92-1.26 2.94-1.58 6.55-2.08 14.3 3.78 14.3 10.4 0 3.5-.75 6.6-2.06 9.16-1.3 2.55-3.17 4.55-5.4 5.84-.01 0-.03 0-.04 0-1.8 0-3.42.73-4.6 1.9-1.06 1.07-1.76 2.5-1.88 4.1h-.02c-3 3-8 4-12 9l-.29.14-2.85-6.07.14-.07 9-3-1.72-5.15c5.78-2.95 7.72-5.93 7.72-10.85z" fill="#4fc1e9"/><path d="m47 23c.33 0 .66-.02.99-.07l.01.07c0 4.92-1.94 7.9-7.72 10.85l-1.28-3.85-.11-.38 2.11-.62-9.17-5.73.17-.27c2-2 4-4 4-9l-.05-.15c-.3.1-.63.15-.95.15-1.1 0-2.1-.45-2.83-1.17-.72-.73-1.17-1.73-1.17-2.83v-1c0-3.87 3.13-7 7-7 2 0 3.75.5 5.38 1.5 1.51.93 2.91 2.3 4.32 4.1-1.02.32-2.01.84-2.94 1.58-1.23.98-2.17 2.23-2.8 3.63-.64 1.41-.96 2.96-.96 4.53 0 1.56.72 2.98 1.83 4 1.11 1.03 2.61 1.66 4.17 1.66z" fill="#69d6f4"/><path d="m36 48c4-5 9-6 12-9h.02c.12-1.6.82-3.03 1.88-4.1 1.18-1.17 2.8-1.9 4.6-1.9h.04c3.58.02 7.46 3.02 7.46 9v1.18c0 7.63-6.19 13.82-13.82 13.82 0 0-6.18 0-8.18 5h-8l2.97-9.89 3.03.89-2.29-4.86z" fill="#69d6f4"/><path d="m16 22s-9.34 0-11 0-3-1.34-3-3 1.34-3 3-3 5 2 11 6z" fill="#4fc1e9"/><path d="m14 27s-6.15 6.11-7.24 7.19-2.85 1.08-3.94 0-1.09-2.84 0-3.92c1.09-1.09 4.6-1.96 11.18-3.27z" fill="#4fc1e9"/><path d="m15.14 6.75c.95 1 1.72 4.22 2.86 10.25 0 0-5.34-5.63-6.29-6.63s-.95-2.62 0-3.62 2.48-1 3.43 0z" fill="#69d6f4"/><path d="m34.97 52.11-2.97 9.89-6.94-2.19 1.94-5.81-6-2-1.97 5.9-6.03-1.9 3-9 .11-.38z" fill="#e6e9ed"/><path d="m27 54-1.94 5.81-6.03-1.91 1.97-5.9z" fill="#dfb28b"/><path d="m35.71 48.14 2.29 4.86-3.03-.89-18.86-5.49-2.11-.62 8-5 8-5 2.86 6.07z" fill="#ff826e"/><path d="m40.28 33.85 1.72 5.15-9 3-.14.07-2.86-6.07-8 5-1.7-5.1-.26-.79 18.85-5.49.11.38z" fill="#e6e9ed"/><path d="m20.04 35.11-3.04.89 8-17 6.83 4.27 9.17 5.73-2.11.62z" fill="#fcd770"/><path d="m59 18v-1h-2v1c0 2.048-.324 4.002-.938 5.651l1.875.697c.695-1.869 1.063-4.065 1.063-6.348z"/><path d="m51.499 29.135 1.002 1.73c1.6-.926 3.225-2.546 4.346-4.334l-1.694-1.062c-.957 1.524-2.323 2.895-3.654 3.666z"/><path d="m57.038 32.45c3.768-3.183 5.962-8.402 5.962-14.45 0-4.228-2.926-8.48-7.282-10.582-2.548-1.229-5.213-1.529-7.644-.941-3.083-3.776-6.227-5.477-10.074-5.477-4.411 0-8 3.589-8 8v1c0 2.746 2.226 4.979 4.967 4.997-.22 3.615-1.648 5.256-3.343 6.964l-7.05-4.406-9.424 20.026 3.226-.941c-1.06 1.301-2.758 2.558-4.671 3.964-5.361 3.944-12.705 9.344-12.705 21.396v1h39.677l.251-.629c1.718-4.297 7.029-4.37 7.252-4.371 8.172 0 14.82-6.647 14.82-14.819v-1.181c0-5.157-2.762-8.42-5.962-9.55zm-2.189-23.231c3.679 1.776 6.151 5.304 6.151 8.781 0 6.233-2.528 11.448-6.767 14.014-3.668.13-6.668 2.901-7.155 6.469-1.097 1.029-2.46 1.824-4.036 2.727-2.236 1.28-4.736 2.722-7.021 5.236l-1.789-3.802 9.034-3.01-1.763-5.289c5.172-2.807 7.281-5.809 7.477-10.588 1.718-.419 3.205-1.36 4.041-2.637 1.149-1.756 1.291-3.811.38-5.495-.876-1.619-2.562-2.625-4.401-2.625-2.757 0-5 2.243-5 5h2c0-1.654 1.346-3 3-3 1.104 0 2.116.604 2.641 1.575.564 1.043.457 2.301-.294 3.449-.761 1.164-2.549 1.976-4.347 1.976-2.664 0-5-2.177-5-4.657 0-2.937 1.266-5.695 3.385-7.379 2.644-2.102 6.094-2.371 9.464-.745zm-30.423 49.341-4.124-1.302 1.331-3.993 4.103 1.368zm1.907.602 1.932-5.795-7.897-2.632-1.974 5.92-4.124-1.302 2.501-7.503 16.947 4.943-2.385 7.948zm-9.91-13.497 13.152-8.22 6.576 13.974zm4.892-9.882 16.914-4.933 2.506 7.517-7.361 2.454-2.949-6.267-7.878 4.924zm15.672-21.292c.713-.389 1.293-.979 1.625-1.721.597-1.337.505-2.774-.253-3.944-.742-1.143-1.998-1.826-3.359-1.826v2c.681 0 1.309.342 1.68.914.225.347.538 1.073.105 2.04-.279.626-.996 1.046-1.785 1.046-1.654 0-3-1.346-3-3v-1c0-3.309 2.691-6 6-6 3.059 0 5.543 1.277 8.083 4.21-.677.326-1.334.704-1.942 1.187-2.593 2.061-4.141 5.405-4.141 8.946 0 3.597 3.186 6.636 6.965 6.655-.247 3.726-1.967 6.099-6.107 8.414l-.707-2.122 3.272-.954-10.063-6.29c1.758-1.811 3.506-4.058 3.627-8.555zm-11.562 5.954 13.152 8.22-19.728 5.754zm-10.534 21.771c2.011-1.478 3.81-2.805 5.029-4.294l.883 2.648-9.225 5.766 3.272.954-3.119 9.358 13.783 4.352h-22.495c.385-10.337 6.737-15.008 11.872-18.784zm46.109.965c0 7.068-5.75 12.819-12.819 12.819-.269 0-6.376.059-8.828 5h-6.008l2.294-7.647 4.211 1.228-2.897-6.155c2.209-2.678 4.685-4.107 7.083-5.48 1.074-.615 2.099-1.219 3.047-1.897.357 2.244 1.89 3.684 4.256 3.919 2.265.221 4.344-1.309 4.626-3.424.153-1.152-.194-2.311-.954-3.178-.761-.868-1.858-1.366-3.011-1.366v2c.577 0 1.125.249 1.506.684.385.44.554 1.007.476 1.597-.138 1.038-1.253 1.815-2.445 1.697-1.684-.167-2.537-1.169-2.537-2.978v-.5c0-3.032 2.467-5.5 5.5-5.5 3.23 0 6.5 2.748 6.5 8z"/><path d="m48.181 52c-1.065 0-3.202.139-5.549 1.07l.737 1.859c2.038-.809 3.89-.93 4.812-.93 3.414 0 6.557-1.606 8.624-4.406l-1.609-1.188c-1.686 2.285-4.243 3.595-7.015 3.595z"/><path d="m5 23h14.303l-2.748-1.832c-6.269-4.179-9.597-6.168-11.555-6.168-2.206 0-4 1.794-4 4s1.794 4 4 4zm0-6c1.236 0 4.269 1.794 7.667 4h-7.667c-1.103 0-2-.897-2-2s.897-2 2-2z"/><path d="m4.791 35.998c.97 0 1.94-.367 2.679-1.101l9.587-9.524-3.251.646c-7.788 1.547-10.52 2.373-11.692 3.538-.718.714-1.114 1.661-1.114 2.67 0 1.01.395 1.958 1.113 2.672.738.732 1.708 1.099 2.678 1.099zm-1.269-5.021c.777-.772 3.899-1.577 7.396-2.325l-4.858 4.827c-.699.695-1.838.694-2.537.001-.337-.335-.523-.78-.523-1.252s.186-.916.522-1.251z"/><path d="m19.616 20.158-.634-3.345c-1.356-7.152-2.084-9.665-3.116-10.753-1.299-1.368-3.584-1.367-4.881 0-1.306 1.377-1.306 3.618 0 4.995zm-7.18-12.72c.268-.283.619-.438.99-.438s.722.155.989.438c.638.673 1.309 3.331 1.939 6.373l-3.918-4.132c-.586-.618-.586-1.623 0-2.241z"/></svg>