<svg xmlns="http://www.w3.org/2000/svg" width="59" height="52.942" viewBox="0 0 59 52.942">
  <g id="warning" transform="translate(-0.001 -0.501)">
    <path id="Path_35" data-name="Path 35" d="M52.026,53.443H6.975A6.964,6.964,0,0,1,.945,43L23.47,3.982a6.963,6.963,0,0,1,12.061,0l9.4,16.275a1.152,1.152,0,1,1-2,1.152l-9.4-16.275a4.659,4.659,0,0,0-8.07,0L2.94,44.15a4.659,4.659,0,0,0,4.035,6.989h45.05a4.659,4.659,0,0,0,4.035-6.989L48.117,30.391a1.152,1.152,0,1,1,2-1.152L58.057,43a6.964,6.964,0,0,1-6.031,10.445Zm0,0" transform="translate(0 0)" fill="#fff"/>
    <path id="Path_36" data-name="Path 36" d="M394.861,208.231a1.153,1.153,0,1,1,.814-.338A1.164,1.164,0,0,1,394.861,208.231Zm0,0" transform="translate(-348.338 -181.753)" fill="#fff"/>
    <path id="Path_37" data-name="Path 37" d="M225.921,315.659a3.918,3.918,0,1,1,3.917-3.918A3.922,3.922,0,0,1,225.921,315.659Zm0-5.531a1.613,1.613,0,1,0,1.613,1.613A1.615,1.615,0,0,0,225.921,310.128Zm0,0" transform="translate(-196.421 -271.909)" fill="#fff"/>
    <path id="Path_38" data-name="Path 38" d="M225.921,147.479A3.922,3.922,0,0,1,222,143.561v-9.7a3.917,3.917,0,1,1,7.835,0v9.7A3.922,3.922,0,0,1,225.921,147.479Zm0-15.233a1.615,1.615,0,0,0-1.613,1.613v9.7a1.613,1.613,0,1,0,3.227,0v-9.7A1.615,1.615,0,0,0,225.921,132.246Zm0,0" transform="translate(-196.421 -114.525)" fill="#fff"/>
  </g>
</svg>
